<svg 
          width="22" 
          height="26" fill="none" 
          xmlns="http://www.w3.org/2000/svg">
          <path d="M 21 0 L 4 0 C 2.9391340017318726 8.881784197001252e-16 1.921718180179596 0.4214271903038025 1.1715726852416992 1.1715726852416992 C 0.4214271903038025 1.921718180179596 8.881784197001252e-16 2.9391340017318726 0 4 L 0 25 C 0 25.265216499567032 0.10535703599452972 25.51957117021084 0.2928934097290039 25.707107543945312 C 0.4804297834634781 25.894643917679787 0.7347835004329681 26 1 26 L 19 26 C 19.265216499567032 26 19.51957117021084 25.894643917679787 19.707107543945312 25.707107543945312 C 19.894643917679787 25.51957117021084 20 25.265216499567032 20 25 C 20 24.734783500432968 19.894643917679787 24.48042882978916 19.707107543945312 24.292892456054688 C 19.51957117021084 24.105356082320213 19.265216499567032 24 19 24 L 2 24 C 2 23.469567000865936 2.2107135951519012 22.960859566926956 2.5857863426208496 22.585786819458008 C 2.960859090089798 22.21071407198906 3.4695670008659363 22 4 22 L 21 22 C 21.265216499567032 22 21.51957117021084 21.894643917679787 21.707107543945312 21.707107543945312 C 21.894643917679787 21.51957117021084 22 21.265216499567032 22 21 L 22 1 C 22 0.7347835004329681 21.894643917679787 0.480429545044899 21.707107543945312 0.2928931713104248 C 21.51957117021084 0.10535679757595062 21.265216499567032 8.881784197001252e-16 21 0 Z M 10 2 L 16 2 L 16 11 L 13.598749160766602 9.199999809265137 C 13.425652995705605 9.070177674293518 13.215120896697044 9 12.998750686645508 9 C 12.782380476593971 9 12.571846470236778 9.070177674293518 12.398750305175781 9.199999809265137 L 10 11 L 10 2 Z M 20 20 L 4 20 C 3.297681450843811 19.999042123148683 2.607631266117096 20.184060990810394 2 20.5362491607666 L 2 4 C 2 3.4695670008659363 2.2107135951519012 2.960859090089798 2.5857863426208496 2.5857863426208496 C 2.960859090089798 2.2107135951519012 3.4695670008659363 2.000000000000001 4 2 L 8 2 L 8 13 C 8 13.185711935162544 8.051714666187763 13.367756024003029 8.149349212646484 13.525732040405273 C 8.246983759105206 13.683708056807518 8.386681020259857 13.811373442411423 8.552786827087402 13.894426345825195 C 8.718892633914948 13.977479249238968 8.90484407544136 14.012638207525015 9.089805603027344 13.995960235595703 C 9.274767130613327 13.979282263666391 9.451430827379227 13.911426402628422 9.600000381469727 13.799999237060547 L 13 11.25 L 16.4012508392334 13.799999237060547 C 16.57400481402874 13.929565072059631 16.78405748307705 13.999729846342234 17 14 C 17.155243784189224 13.999769834859762 17.308355823159218 13.963844612240791 17.447500228881836 13.895000457763672 C 17.613639622926712 13.81186430901289 17.753335490822792 13.68409051001072 17.850923538208008 13.526006698608398 C 17.948511585593224 13.367922887206078 18.000133006833494 13.185779169201851 18 13 L 18 2 L 20 2 L 20 20 Z" fill="rgb(255,255,255)"/>
        </svg>